<?xml version="1.0" encoding="UTF-8" standalone="no"?>
<!-- Created with Inkscape (http://www.inkscape.org/) -->

<svg
   width="1380.4417"
   height="1380.4431"
   viewBox="0 0 365.24185 365.24241"
   version="1.1"
   id="svg1"
   sodipodi:docname="dots.svg"
   inkscape:export-filename="dotsl-bg.png"
   inkscape:export-xdpi="96"
   inkscape:export-ydpi="96"
   inkscape:version="1.3.2 (091e20e, 2023-11-25)"
   xmlns:inkscape="http://www.inkscape.org/namespaces/inkscape"
   xmlns:sodipodi="http://sodipodi.sourceforge.net/DTD/sodipodi-0.dtd"
   xmlns="http://www.w3.org/2000/svg"
   xmlns:svg="http://www.w3.org/2000/svg">
  <sodipodi:namedview
     id="namedview1"
     pagecolor="#ffffff"
     bordercolor="#999999"
     borderopacity="1"
     inkscape:showpageshadow="2"
     inkscape:pageopacity="0"
     inkscape:pagecheckerboard="0"
     inkscape:deskcolor="#d1d1d1"
     inkscape:document-units="mm"
     showguides="true"
     inkscape:zoom="0.058049199"
     inkscape:cx="1171.4201"
     inkscape:cy="964.69892"
     inkscape:window-width="2560"
     inkscape:window-height="1387"
     inkscape:window-x="0"
     inkscape:window-y="25"
     inkscape:window-maximized="0"
     inkscape:current-layer="g57"
     inkscape:export-bgcolor="#ffffff00" />
  <defs
     id="defs1">
    <linearGradient
       id="linearGradient3"
       inkscape:swatch="gradient">
      <stop
         style="stop-color:#043250;stop-opacity:1;"
         offset="0"
         id="stop3" />
      <stop
         style="stop-color:#043250;stop-opacity:0;"
         offset="1"
         id="stop4" />
    </linearGradient>
  </defs>
  <g
     inkscape:label="Layer 1"
     inkscape:groupmode="layer"
     id="layer1"
     transform="translate(-650.75824,-189.98143)">
    <g
       id="g57"
       transform="matrix(152.59073,0,0,153.42443,-202.15218,-461.68283)"
       inkscape:label="dots">
      <g
         id="g58"
         transform="translate(-0.1063917)"
         inkscape:export-filename="s-bg.svg"
         inkscape:export-xdpi="3.1497478"
         inkscape:export-ydpi="3.1497478"
         inkscape:label="s">
        <rect
           style="fill:#ffffff;fill-opacity:1;stroke:none;stroke-width:3.04204;stroke-dasharray:none;stroke-dashoffset:0;stroke-opacity:1"
           id="rect3"
           width="2.3936043"
           height="2.3806002"
           x="5.6959214"
           y="4.2474608"
           ry="0.45625067"
           inkscape:label="bg" />
        <ellipse
           style="display:inline;fill:none;fill-opacity:1;stroke:#00416b;stroke-width:0.222539;stroke-dasharray:none;stroke-opacity:1"
           id="ellipse1"
           cx="5.034677"
           cy="7.1773725"
           rx="0.73389173"
           ry="0.73055726"
           inkscape:label="O"
           transform="matrix(0.95848968,-0.28512722,0.28799356,0.95763235,0,0)" />
        <path
           style="color:#000000;fill:#00416b;fill-opacity:1;stroke-width:1.05827;stroke-dasharray:none"
           d="M 7.0367048,4.608717 C 6.8333773,4.5756898 6.5918693,4.6043096 6.4386311,4.7684561 6.2809721,4.9373381 6.2934974,5.2338809 6.5130401,5.3906008 6.622813,5.4689618 6.75918,5.5044248 6.8871539,5.5414863 7.0151278,5.5785493 7.1369266,5.6167423 7.1971928,5.6593012 7.3177251,5.7444202 7.3152749,5.885298 7.2281958,5.9548716 7.1256314,6.0368175 6.9436383,6.0670384 6.8064679,6.0494217 6.6800013,6.0331796 6.624962,6.000386 6.4890637,5.911043 c 0,0 -0.029691,-0.036554 -0.1116799,0.056983 -0.050832,0.06887 -0.016471,0.12241 -0.016471,0.12241 0.1113242,0.0907 0.2545138,0.1731384 0.4623713,0.1860525 0.205342,0.012758 0.3787238,-0.02846 0.5619594,-0.1531402 C 7.5762804,5.9933602 7.5368387,5.6414805 7.3191417,5.4877463 7.2102931,5.4108792 7.0747814,5.3759065 6.9470951,5.3389276 6.8194086,5.3019488 6.6988877,5.2631842 6.6370561,5.219046 6.5133922,5.130769 6.5222025,4.9896751 6.5936506,4.9131408 c 0.075869,-0.08127 0.2694881,-0.1116345 0.4077873,-0.084744 0.1624087,0.031578 0.2458672,0.0934 0.3168426,0.1540572 0,0 0.039418,0.029758 0.1102583,-0.043165 C 7.4910458,4.874698 7.4650758,4.8191657 7.4650758,4.8191657 7.3553034,4.7213801 7.2462848,4.6427597 7.0367048,4.608717 Z"
           id="path50"
           sodipodi:nodetypes="ssssssscccssssssscccs"
           inkscape:label="S" />
      </g>
    </g>
  </g>
</svg>
