<svg role="img" viewBox="0 0 24 24" xmlns="http://www.w3.org/2000/svg">
  <title>SemVer</title>
  <path
    d="m 0.35985963,9.037417 c -0.95128364,3.824177 0.024166,7.871938 2.61299997,10.843 2.5880755,2.969313 6.4639218,4.486419 10.3800004,4.063 7.768,-0.703 13.086,-9.799 9.517,-16.8 -0.416,-1.19 -2.07,-0.368 -1.903,0.596 0.287,0.7 0.526,1.421 0.713,2.155 0.855552,3.894101 -0.687941,7.923852 -3.926,10.25 -5.044405,3.620964 -12.1360862,1.796678 -14.8070004,-3.809 -1.71728,-3.598228 -1.1291491,-7.8731853 1.496,-10.874 1.284163,-1.4671699 2.970417,-2.5255117 4.85,-3.044 2.3378914,-0.6610148 4.8374644,-0.436338 7.0200004,0.631 0.285747,0.1612317 0.50922,0.2694484 0.397904,0.5755803 L 12.712891,14.097417 c -0.274969,0.81 -0.682187,0.797719 -0.933718,-0.0039 0,0 -1.9020015,-5.4485591 -2.577336,-7.375173 C 8.4638441,4.6129763 5.3118601,5.7233744 6.0044717,7.7038831 6.5956479,9.3943395 10.09086,18.335417 10.09086,18.335417 c 0.548205,1.30894 1.023,1.834 2.058,1.834 1.035,0 1.414888,-0.331346 2.058,-1.834 l 5.796,-14.382 c 0.155903,-0.4345756 0.0054,-0.9198697 -0.369,-1.19 -6.531,-5.657 -17.3110004,-2.10900003 -19.27400037,6.273 z"
    id="path1" />
</svg>